        <svg
          aria-hidden="true"
          className="rsb-icon-close"
          role="img"
          xmlns="http://www.w3.org/2000/svg"
          viewBox="0 0 352 512"
          onClick={toggleSidebar}
        >
          <defs>
            <linearGradient id="icon-orange-gradient" x2="0.35" y2="1">
              <stop offset="0%" stopColor="var(--color-stop)" />
              <stop offset="30%" stopColor="var(--color-stop)" />
              <stop offset="100%" stopColor="var(--color-bot)" />
            </linearGradient>
          </defs>
          <path
            d="M242.72 256
            l100.07-100.07
            c12.28-12.28 12.28-32.19 0-44.48
            l-22.24-22.24
            c-12.28-12.28-32.19-12.28-44.48 0
            L176 189.28 75.93 89.21
            c-12.28-12.28-32.19-12.28-44.48 0
            L9.21 111.45
            c-12.28 12.28-12.28 32.19 0 44.48
            L109.28 256 9.21 356.07
            c-12.28 12.28-12.28 32.19 0 44.48
            l22.24 22.24
            c12.28 12.28 32.2 12.28 44.48 0
            L176 322.72
            l100.07 100.07
            c12.28 12.28 32.2 12.28 44.48 0
            l22.24-22.24
            c12.28-12.28 12.28-32.19 0-44.48
            L242.72 256
            z"
          ></path>
        </svg>